<?xml version="1.0" encoding="utf-8"?>
<!-- Generator: Adobe Illustrator 19.0.0, SVG Export Plug-In . SVG Version: 6.00 Build 0)  -->
<svg version="1.1" id="Layer_1" xmlns="http://www.w3.org/2000/svg" xmlns:xlink="http://www.w3.org/1999/xlink" x="0px" y="0px"
	 viewBox="0 0 780 362" style="enable-background:new 0 0 780 362;" xml:space="preserve">
<g id="XMLID_1_">
	<g id="XMLID_155_">
		<path id="XMLID_170_" d="M308,329.3c-2.3,0-4.6,0.1-6.8,0.2l-0.9,0.1v25l0.9,0.1c2.8,0.2,5.4,0.4,7.6,0.4c3.6,0,6.6-1,9-2.9
			c1.2-1,2.2-2.3,2.8-3.9c0.7-1.6,1-3.5,1-5.5c0-4.1-1.3-7.4-3.9-9.8C315.1,330.6,311.8,329.3,308,329.3z M308.7,351.8
			c-2,0-3.7-0.1-5-0.2v-18.9c1.2-0.1,2.7-0.1,4.2-0.1c2.9,0,5.2,0.9,7.2,2.7c1.9,1.8,2.9,4.2,2.9,7.3c0,3.1-0.8,5.4-2.5,6.8
			C313.8,351,311.6,351.8,308.7,351.8z"/>
		<polygon id="XMLID_169_" points="330.3,342.8 338.7,342.8 338.7,339.5 330.3,339.5 330.3,332.8 339.6,332.8 339.6,329.6 
			326.8,329.6 326.8,354.8 339.9,354.8 339.9,351.6 330.3,351.6 		"/>
		<path id="XMLID_168_" d="M354.9,341.6c-1-0.7-2.1-1.4-3.1-2.1c-0.9-0.6-1.8-1.4-2.4-2.2c-0.6-0.7-0.9-1.5-0.9-2.3
			c0-1.2,0.4-2.6,3.8-2.6c1.4,0,2.9,0.3,4.4,0.9l0.9,0.4l1.3-3l-0.8-0.4c-1.8-0.8-3.8-1.3-5.8-1.3c-2.2,0-3.9,0.5-5.2,1.6
			c-1.4,1.1-2.1,2.6-2.1,4.4c0,1.4,0.4,2.7,1.2,3.8c0.8,1.1,1.7,2.1,2.8,2.9c1,0.7,2.1,1.5,3.1,2.2c0.9,0.7,1.8,1.4,2.4,2.2
			c0.6,0.7,0.9,1.4,0.9,2.2c0,1.1-0.4,1.9-1.1,2.5c-0.8,0.6-2.1,0.9-3.8,0.9c-1.7,0-3.2-0.5-4.7-1.4l-0.8-0.5l-1.8,2.7l0.7,0.5
			c1.8,1.3,4,2,6.5,2c2.5,0,4.6-0.6,6.1-1.7c1.6-1.2,2.4-3,2.4-5.2c0-1.4-0.4-2.7-1.3-3.8C357,343.4,356,342.4,354.9,341.6z"/>
		<path id="XMLID_165_" d="M372.5,329.3c-2.3,0-4.6,0.1-6.8,0.2l-0.9,0.1v25l0.9,0.1c2.8,0.2,5.4,0.4,7.6,0.4c3.6,0,6.6-1,9-2.9
			c1.2-1,2.2-2.3,2.8-3.9c0.7-1.6,1-3.5,1-5.5c0-4.1-1.3-7.4-3.9-9.8C379.5,330.6,376.3,329.3,372.5,329.3z M373.2,351.8
			c-2,0-3.7-0.1-5-0.2v-18.9c1.2-0.1,2.7-0.1,4.2-0.1c2.9,0,5.2,0.9,7.2,2.7c1.9,1.8,2.9,4.2,2.9,7.3c0,3.1-0.8,5.4-2.5,6.8
			C378.3,351,376,351.8,373.2,351.8z"/>
		<polygon id="XMLID_164_" points="394.7,342.8 403.1,342.8 403.1,339.5 394.7,339.5 394.7,332.8 404,332.8 404,329.6 391.3,329.6 
			391.3,354.8 404.4,354.8 404.4,351.6 394.7,351.6 		"/>
		<polygon id="XMLID_163_" points="417.8,333.1 419.3,335.7 422.4,334.1 422.4,354.8 425.8,354.8 425.8,329.6 423.7,329.6 		"/>
		<path id="XMLID_160_" d="M439.1,329.2c-2.3,0-4.2,0.9-5.8,2.5c-1.6,1.7-2.4,3.6-2.4,5.9c0,2.2,0.6,4.1,1.8,5.6
			c1.2,1.5,3,2.3,5.2,2.3c1.8,0,3.6-0.4,5.4-1.2c-0.5,1.4-1.2,2.6-2.1,3.7c-0.9,1.1-1.8,2.1-2.7,2.8c-0.8,0.7-1.8,1.5-2.9,2.2
			l-0.8,0.5l1.7,2.6l0.8-0.5c1-0.7,1.9-1.3,2.6-1.8c0.8-0.6,1.7-1.4,2.7-2.4c1-1,1.9-2.1,2.6-3.2c0.7-1.1,1.3-2.4,1.7-3.9
			c0.5-1.6,0.7-3.2,0.7-4.9c0-3.6-0.9-6.3-2.7-7.9C443.3,329.9,441.4,329.2,439.1,329.2z M442.7,341.2c-1.5,0.7-2.9,1.1-4.3,1.1
			c-1.2,0-2.1-0.4-2.9-1.3c-0.8-0.9-1.1-2.1-1.1-3.5c0-1.4,0.4-2.6,1.4-3.6c0.9-1,2-1.5,3.4-1.5c1.4,0,2.5,0.5,3.4,1.5
			c0.9,1,1.4,2.8,1.4,5.2c0,0.8-0.1,1.6-0.2,2.3l-0.3-0.8L442.7,341.2z"/>
		<path id="XMLID_157_" d="M459.7,329.2c-2.3,0-4.2,0.9-5.8,2.5c-1.6,1.7-2.4,3.6-2.4,5.9c0,2.2,0.6,4.1,1.8,5.6
			c1.2,1.5,3,2.3,5.2,2.3c1.8,0,3.6-0.4,5.4-1.2c-0.5,1.4-1.2,2.6-2.1,3.7c-0.9,1.1-1.8,2.1-2.7,2.8c-0.8,0.7-1.8,1.5-2.9,2.2
			l-0.8,0.5l1.7,2.6l0.8-0.5c1-0.7,1.9-1.3,2.6-1.8c0.8-0.6,1.7-1.4,2.7-2.4c1-1,1.9-2.1,2.6-3.2c0.7-1.1,1.3-2.4,1.7-3.9
			c0.5-1.6,0.7-3.2,0.7-4.9c0-3.6-0.9-6.3-2.7-7.9C463.9,329.9,462,329.2,459.7,329.2z M463.2,341.2c-1.5,0.7-2.9,1.1-4.3,1.1
			c-1.2,0-2.1-0.4-2.9-1.3c-0.8-0.9-1.1-2.1-1.1-3.5c0-1.4,0.4-2.6,1.4-3.6c0.9-1,2-1.5,3.4-1.5c1.4,0,2.5,0.5,3.4,1.5
			c0.9,1,1.4,2.8,1.4,5.2c0,0.8-0.1,1.6-0.2,2.3l-0.3-0.8L463.2,341.2z"/>
		<polygon id="XMLID_156_" points="471.7,333.1 473.1,335.7 476.3,334.1 476.3,354.8 479.7,354.8 479.7,329.6 477.5,329.6 		"/>
	</g>
	<g id="XMLID_111_">
		<path id="XMLID_153_" d="M37.9,204.7c-1.2-1.4-2.6-2.5-4.1-3.5c0.6-0.7,1.1-1.4,1.6-2.2c1.7-2.6,2.6-5.5,2.6-8.6
			c0-4.4-1.8-7.9-5.3-10.2c-3.1-2.1-6.8-3.1-10.9-3.1c-3.6,0-7.1,0.1-10.5,0.4l-3,0.2v51.9l3,0.3c4.1,0.3,8.5,0.5,13,0.5
			c5.2,0,9.4-1.3,12.6-3.9c3.3-2.7,5-6.7,5-11.8C41.8,211,40.5,207.6,37.9,204.7z M30.7,219.9l-0.6-0.7c-1.4,1.2-3.2,1.8-5.6,1.8
			c-2.7,0-4.9,0-6.7-0.1v-14.2h1c1.8,0,3.5,0.1,4.8,0.4c2.7,0.6,4.9,1.7,6.4,3.2c1.3,1.3,2,2.9,2,4.7c0,1.8-0.6,3-1.9,4.2
			L30.7,219.9L30.7,219.9z M26.8,194.8c-0.9,1.3-1.9,2.2-3,3c-2.5-0.2-4.5-0.3-5.9-0.3v-11.2c1.4-0.1,2.8-0.1,4.2-0.1
			c1.8,0,3.3,0.5,4.8,1.4c1,0.7,1.5,1.5,1.5,2.7C28.2,191.9,27.8,193.4,26.8,194.8z"/>
		<path id="XMLID_466_" d="M63.3,176.9l-22.1,53h10.4l6.6-16h16.2l6.6,16h10.6l-22.2-53H63.3z M70.6,204.7H62l4.3-10.3L70.6,204.7z"
			/>
		<path id="XMLID_469_" d="M128,218.1c-0.6-0.7-2.1-2.6-4.4-5.5c-1.5-1.9-2.8-3.7-4-5.3c1.3-1.3,2.6-2.8,3.7-4.4c2-3,3-6.2,3-9.6
			c0-5.2-1.8-9.2-5.5-12.1c-3.4-2.7-7.8-4.1-12.9-4.1c-2.8,0-6.3,0.2-10.5,0.5l-3.1,0.2v52.2h9.7v-18.7c2,0.1,4.2,0.2,6.5,0.2
			c5.4,7.4,8.8,11.8,10.4,13.4c1.8,1.8,3.7,3.2,5.7,4.2c2.1,1,4.6,1.4,7.7,1.5l3.2,0.1l0.3-8.3l-3-0.4
			C132.2,221.5,130,220.3,128,218.1z M116.4,193.1c0,2.5-0.8,4.6-2.4,6.5c-1.7,1.9-2.9,2.6-3.6,2.6c-2,0-4.1-0.1-6.3-0.1v-15.6
			c1.3-0.1,2.4-0.1,3.5-0.1c2.9,0,5.2,0.6,6.8,1.9C115.7,189.3,116.4,190.8,116.4,193.1z"/>
		<path id="XMLID_472_" d="M167.1,201.1c0.6-0.7,1.1-1.4,1.6-2.2c1.7-2.6,2.6-5.5,2.6-8.6c0-4.4-1.8-7.9-5.3-10.2
			c-3.1-2.1-6.8-3.1-10.9-3.1c-3.6,0-7.1,0.1-10.5,0.4l-3,0.2v51.9l3,0.3c4.1,0.3,8.5,0.5,13,0.5c5.2,0,9.4-1.3,12.6-3.9
			c3.3-2.7,5-6.7,5-11.8c0-3.7-1.3-7.1-3.9-10C170,203.3,168.6,202.1,167.1,201.1z M164,219.9l-0.6-0.7c-1.4,1.2-3.2,1.8-5.6,1.8
			c-2.7,0-4.9,0-6.7-0.1v-14.2h1c1.8,0,3.5,0.1,4.8,0.4c2.7,0.6,4.9,1.7,6.4,3.2c1.3,1.3,2,2.9,2,4.7c0,1.8-0.6,3.1-1.9,4.2
			L164,219.9z M160.1,194.8c-0.9,1.3-1.9,2.2-3,3c-2.5-0.2-4.5-0.3-5.9-0.3v-11.2c1.4-0.1,2.8-0.1,4.2-0.1c1.8,0,3.3,0.5,4.8,1.4
			c1,0.7,1.5,1.5,1.5,2.7C161.6,191.9,161.1,193.4,160.1,194.8z"/>
		<polygon id="XMLID_474_" points="189.3,206.2 205.9,206.2 205.9,196.9 189.3,196.9 189.3,186.6 207.6,186.6 207.6,177.3 
			179.6,177.3 179.6,229.9 208.3,229.9 208.3,220.6 189.3,220.6 		"/>
		<path id="XMLID_477_" d="M233,176.9l-22.1,53h10.4l6.6-16h16.2l6.6,16h10.6l-22.2-53H233z M240.3,204.7h-8.6l4.3-10.3L240.3,204.7
			z"/>
		<path id="XMLID_480_" d="M296.7,218.1c-0.6-0.7-2.1-2.6-4.4-5.5c-1.5-1.9-2.8-3.7-4-5.3c1.3-1.3,2.6-2.8,3.7-4.4
			c2-2.9,3-6.2,3-9.6c0-5.2-1.8-9.2-5.5-12.1c-3.4-2.7-7.8-4.1-12.9-4.1c-2.8,0-6.3,0.2-10.5,0.5l-3.1,0.2v52.2h9.7v-18.7
			c2,0.1,4.2,0.2,6.5,0.2c5.5,7.5,8.8,11.8,10.4,13.4c1.8,1.8,3.7,3.2,5.7,4.2c2.1,1,4.6,1.4,7.7,1.5l3.2,0.1l0.3-8.3l-3-0.4
			C301,221.5,298.8,220.3,296.7,218.1z M285.1,193.1c0,2.5-0.8,4.6-2.4,6.5c-1.7,1.9-2.9,2.6-3.6,2.6c-2,0-4.1-0.1-6.3-0.1v-15.6
			c1.3-0.1,2.4-0.1,3.5-0.1c2.9,0,5.2,0.6,6.8,1.9C284.5,189.3,285.1,190.8,285.1,193.1z"/>
		<rect id="XMLID_481_" x="309" y="177.3" width="9.7" height="52.7"/>
		<path id="XMLID_484_" d="M343.8,176.9l-22.1,53h10.4l6.6-16h16.2l6.6,16h10.6l-22.2-53H343.8z M351.1,204.7h-8.6l4.3-10.3
			L351.1,204.7z"/>
		<path id="XMLID_487_" d="M431.7,184.3c-5.4-5-12.1-7.5-20-7.5c-4.5,0-9.1,0.2-13.5,0.5l-3.1,0.2v52l3,0.3c5.6,0.5,10.6,0.7,15,0.7
			c7.4,0,13.6-2,18.6-6.1c2.6-2.1,4.6-4.9,6-8.3c1.4-3.3,2.1-7.2,2.1-11.4C439.9,196.2,437.2,189.3,431.7,184.3z M430,204.6
			c0,5.7-1.4,9.7-4.4,12.4c-3.1,2.8-7.1,4.1-12.4,4.1c-3.3,0-6.1-0.1-8.4-0.2v-34.5c2.1-0.1,4.4-0.1,6.9-0.1c5.3,0,9.6,1.6,13.1,5
			C428.3,194.5,430,198.9,430,204.6z"/>
		<polygon id="XMLID_488_" points="454.2,206.2 470.8,206.2 470.8,196.9 454.2,196.9 454.2,186.6 472.5,186.6 472.5,177.3 
			444.6,177.3 444.6,229.9 473.2,229.9 473.2,220.6 454.2,220.6 		"/>
		<path id="XMLID_491_" d="M518.5,176.9l-22.1,53h10.4l6.6-16h16.2l6.6,16h10.6l-22.2-53H518.5z M525.8,204.7h-8.6l4.3-10.3
			L525.8,204.7z"/>
		<polygon id="XMLID_492_" points="587.7,183 587.7,177.3 551.2,177.3 551.2,186.6 573.8,186.6 549.6,223.9 549.5,224.2 
			549.5,229.9 588.2,229.9 588.2,220.6 563.3,220.6 		"/>
		<polygon id="XMLID_493_" points="603.3,206.2 619.8,206.2 619.8,196.9 603.3,196.9 603.3,186.6 621.6,186.6 621.6,177.3 
			593.6,177.3 593.6,229.9 622.3,229.9 622.3,220.6 603.3,220.6 		"/>
		<rect id="XMLID_494_" x="628.5" y="177.3" width="9.7" height="52.7"/>
		<polygon id="XMLID_495_" points="684,177.3 643.1,177.3 643.1,186.6 658.7,186.6 658.7,229.9 668.4,229.9 668.4,186.6 684,186.6 
					"/>
		<path id="XMLID_496_" d="M693.8,173.7c1.2-1.9,1.9-2.3,2.1-2.4c0.2,0.1,1.1,0.3,3,1.4l1,0.5c0.7,0.4,1.1,0.6,1.3,0.7
			c0.2,0.1,0.5,0.2,1,0.4c0.7,0.3,1.4,0.5,2,0.6c0.6,0.1,1.3,0.1,2.2,0.1c1.4,0,2.9-0.5,4.4-1.6c1.3-0.9,2.2-1.8,2.9-2.6
			c0.5-0.7,1.1-1.5,1.7-2.5l1.8-2.7l-7.2-4.7l-1.8,2.9c-1.2,1.9-1.9,2.3-2.1,2.4c-0.2-0.1-1-0.3-2.9-1.3l-0.1-0.1
			c-0.1,0-0.3-0.2-0.7-0.4l-0.2-0.1c-0.7-0.3-1.1-0.6-1.3-0.7c-0.2-0.1-0.5-0.2-1-0.4c-0.7-0.3-1.4-0.5-2-0.6
			c-0.6-0.1-1.3-0.1-2.2-0.1c-1.4,0-2.9,0.5-4.4,1.6c-1.3,0.9-2.2,1.8-2.9,2.6c-0.5,0.7-1.1,1.5-1.7,2.5l-1.7,2.7l7.2,4.7
			L693.8,173.7z"/>
		<path id="XMLID_499_" d="M698.3,176.9l-22.1,53h10.4l6.6-16h16.2l6.6,16h10.6l-22.2-53H698.3z M705.6,204.7H697l4.3-10.3
			L705.6,204.7z"/>
		<path id="XMLID_502_" d="M764.9,188.1c-4.7-4.8-10.5-7.3-17.4-7.3c-6.9,0-12.7,2.4-17.4,7.3c-4.6,4.8-7,10.7-7,17.6
			c0,6.9,2.4,12.8,7,17.6c4.7,4.8,10.5,7.3,17.4,7.3c6.9,0,12.7-2.4,17.4-7.3c4.6-4.8,7-10.7,7-17.6
			C771.9,198.8,769.5,192.9,764.9,188.1z M762.2,205.7c0,4.5-1.4,8.1-4.2,11.2c-2.8,3-6.2,4.4-10.4,4.4c-4.3,0-7.7-1.4-10.5-4.4
			c-2.8-3-4.2-6.7-4.2-11.1c0-4.5,1.4-8.1,4.2-11.2c2.8-3,6.2-4.4,10.5-4.4c4.3,0,7.7,1.4,10.4,4.4
			C760.8,197.6,762.2,201.2,762.2,205.7z"/>
	</g>
	<g id="XMLID_75_">
		<path id="XMLID_108_" d="M195.8,273.5l-11.3,27h3.9l3.6-8.6h9.8l3.6,8.6h4l-11.3-27H195.8z M193.4,288.5l3.2-7.9
			c0.1-0.2,0.1-0.3,0.2-0.5c0.1,0.2,0.2,0.4,0.2,0.5l3.3,7.8H193.4z"/>
		<path id="XMLID_105_" d="M234.4,273.5c-2.4,0-4.8,0.1-7.2,0.2l-0.9,0.1v26.6l0.9,0.1c3,0.3,5.7,0.4,8,0.4c3.8,0,7-1,9.6-3.1
			c1.3-1.1,2.3-2.5,3-4.2c0.7-1.7,1.1-3.7,1.1-5.9c0-4.3-1.4-7.8-4.2-10.4C241.9,274.8,238.5,273.5,234.4,273.5z M235.2,297.3
			c-2.1,0-3.9-0.1-5.3-0.2v-20.1c1.3-0.1,2.8-0.1,4.5-0.1c3.1,0,5.5,0.9,7.6,2.9c2,1.9,3,4.5,3,7.8c0,3.3-0.9,5.7-2.6,7.3
			C240.6,296.5,238.2,297.3,235.2,297.3z"/>
		<path id="XMLID_102_" d="M258.1,291.9h9.8l3.6,8.6h4l-11.3-27h-2.3l-11.3,27h3.9L258.1,291.9z M259.5,288.5l3.2-7.9
			c0.1-0.2,0.1-0.3,0.2-0.5c0.1,0.2,0.2,0.4,0.2,0.5l3.3,7.8H259.5z"/>
		<path id="XMLID_101_" d="M301.7,286.5c-1.1-0.8-2.2-1.5-3.3-2.3c-1-0.7-1.9-1.4-2.6-2.3c-0.6-0.8-0.9-1.6-0.9-2.4
			c0-1.3,0.5-2.8,4.1-2.8c1.5,0,3.1,0.3,4.6,1l0.9,0.4l1.4-3.1l-0.9-0.4c-1.9-0.9-4-1.3-6.2-1.3c-2.3,0-4.2,0.6-5.5,1.7
			c-1.5,1.2-2.2,2.7-2.2,4.7c0,1.5,0.4,2.8,1.3,4.1c0.8,1.2,1.8,2.2,3,3c1.1,0.8,2.2,1.6,3.3,2.3c1,0.7,1.9,1.5,2.6,2.3
			c0.6,0.8,0.9,1.5,0.9,2.3c0,1.2-0.4,2.1-1.2,2.7c-0.9,0.7-2.2,1-4,1c-1.8,0-3.4-0.5-4.9-1.5l-0.8-0.5l-1.9,2.9l0.8,0.6
			c1.9,1.4,4.3,2.1,7,2.1c2.7,0,4.9-0.6,6.5-1.8c1.7-1.3,2.5-3.1,2.5-5.6c0-1.5-0.4-2.8-1.3-4.1
			C303.9,288.4,302.9,287.4,301.7,286.5z"/>
		<path id="XMLID_100_" d="M329.7,297.8c1.7-2.1,2.6-4.9,2.6-8.4v-15.6h-3.7v15.6c0,5.6-2.2,8.2-7,8.2s-7-2.6-7-8.2v-15.6h-3.7v15.6
			c0,3.5,0.9,6.3,2.6,8.4c1.8,2.1,4.5,3.2,8.1,3.2C325.2,300.9,327.9,299.9,329.7,297.8z"/>
		<path id="XMLID_97_" d="M355.5,300.5h4l-11.3-27H346l-11.3,27h3.9l3.6-8.6h9.8L355.5,300.5z M343.6,288.5l3.2-7.9
			c0.1-0.2,0.1-0.3,0.2-0.5c0.1,0.2,0.2,0.4,0.2,0.5l3.3,7.8H343.6z"/>
		<path id="XMLID_94_" d="M389.5,275.5c-1.6-1.3-3.8-1.9-6.5-1.9c-1.8,0-3.7,0.1-5.7,0.3l-0.9,0.1v26.6h3.7v-10.3h0.8
			c3,0,5.6-0.8,7.8-2.4c2.3-1.7,3.4-3.8,3.4-6.4C392.1,278.8,391.2,276.8,389.5,275.5z M380.1,277.1c1-0.1,1.9-0.1,2.7-0.1h0
			c1.8,0,3.2,0.4,4.2,1.1c0.9,0.7,1.4,1.8,1.4,3.4c0,1.6-0.7,2.9-2.1,3.9c-1.5,1.1-3.3,1.6-5.4,1.6h-0.7V277.1z"/>
		<path id="XMLID_91_" d="M414.3,295.5c-0.4-0.4-1.2-1.4-2.4-3c-1-1.3-1.9-2.4-2.6-3.4c0.9-0.7,1.7-1.7,2.4-2.7
			c1-1.5,1.5-3.1,1.5-4.8c0-2.5-0.9-4.5-2.7-5.9c-1.7-1.4-3.9-2-6.5-2c-1.5,0-3.4,0.1-5.6,0.2l-0.9,0.1v26.6h3.7v-10.1
			c1.4,0.1,3,0.1,4.7,0.1c3.1,4.2,4.9,6.6,5.7,7.5c0.9,0.9,1.8,1.6,2.8,2.1c1,0.5,2.3,0.7,3.8,0.7l1,0l0.1-3l-0.9-0.1
			C416.9,297.5,415.5,296.8,414.3,295.5z M401.2,277.1c1-0.1,1.9-0.1,2.7-0.1c1.7,0,3.1,0.4,4.1,1.2c0.9,0.7,1.4,1.8,1.4,3.2
			c0,1.5-0.5,2.9-1.5,4c-0.9,1.1-1.8,1.7-2.5,1.7c-1.3,0-2.7,0-4.2-0.1V277.1z"/>
		<polygon id="XMLID_90_" points="426.9,287.7 435.8,287.7 435.8,284.3 426.9,284.3 426.9,277.2 436.7,277.2 436.7,273.7 
			423.2,273.7 423.2,300.5 437.1,300.5 437.1,297.1 426.9,297.1 		"/>
		<path id="XMLID_87_" d="M449.8,273.5c-2.4,0-4.8,0.1-7.2,0.2l-0.9,0.1v26.6l0.9,0.1c3,0.3,5.7,0.4,8,0.4c3.8,0,7-1,9.6-3.1
			c1.3-1.1,2.3-2.5,3-4.2c0.7-1.7,1.1-3.7,1.1-5.9c0-4.3-1.4-7.8-4.2-10.4C457.3,274.8,453.9,273.5,449.8,273.5z M450.6,297.3
			c-2.1,0-3.9-0.1-5.3-0.2v-20.1c1.3-0.1,2.8-0.1,4.5-0.1c3.1,0,5.5,0.9,7.6,2.9c2,1.9,3,4.5,3,7.8c0,3.3-0.9,5.7-2.6,7.3
			C456,296.5,453.6,297.3,450.6,297.3z"/>
		<rect id="XMLID_86_" x="469.9" y="273.7" width="3.7" height="26.8"/>
		<polygon id="XMLID_85_" points="484.2,273.7 480.5,273.7 480.5,300.5 495.6,300.5 495.6,297 484.2,297 		"/>
		<polygon id="XMLID_84_" points="503.5,287.7 512.4,287.7 512.4,284.3 503.5,284.3 503.5,277.2 513.4,277.2 513.4,273.7 
			499.8,273.7 499.8,300.5 513.7,300.5 513.7,297.1 503.5,297.1 		"/>
		<path id="XMLID_83_" d="M538.7,296.3c-1.9,0.8-4.1,1.2-6.7,1.2c-2.9,0-5.3-1-7.3-3c-2.1-2-3.1-4.4-3.1-7.3c0-2.9,0.9-5.3,2.6-7.3
			c1.7-2,3.9-2.9,6.7-2.9c2.4,0,5,0.4,7.7,1.2l0.9,0.3l1.1-3.3l-0.9-0.3c-2.9-1-5.9-1.4-8.7-1.4c-3.8,0-7,1.4-9.4,4
			c-2.4,2.6-3.7,5.9-3.7,9.8c0,3.9,1.4,7.2,4.1,9.8c2.4,2.3,5.2,3.6,8.5,4l-0.6,1.5l2.3,0.9l0.4-0.1c0.2-0.1,0.4-0.1,0.7-0.1
			c0.1,0,0.2,0,0.3,0.2c0.1,0.1,0.2,0.2,0.2,0.6c0,0.4-0.1,0.5-0.2,0.6c-0.1,0.1-0.5,0.2-0.6,0.2c-0.2,0-0.5-0.1-0.8-0.5l-0.7-0.9
			l-2.1,2.1l0.5,0.7c0.8,1.1,1.9,1.7,3.2,1.7c1.2,0,2.3-0.4,3-1.2c0.8-0.8,1.2-1.7,1.2-2.9c0-1.1-0.4-2.1-1.1-2.8
			c-0.1-0.1-0.3-0.3-0.4-0.4c1.9-0.3,3.4-0.8,4.6-1.5l0.8-0.4l-1.3-2.9L538.7,296.3z"/>
		<path id="XMLID_80_" d="M554.8,273.5l-11.3,27h3.9l3.6-8.6h9.8l3.6,8.6h4l-11.3-27H554.8z M552.4,288.5l3.2-7.9
			c0.1-0.2,0.1-0.3,0.2-0.5c0.1,0.2,0.2,0.4,0.2,0.5l3.3,7.8H552.4z"/>
		<path id="XMLID_79_" d="M551.2,270.8c0.7-1,1.3-1.7,1.8-1.7c0.1,0,0.5,0,1.9,0.8l0.5,0.3c0.3,0.2,0.6,0.3,0.7,0.3l0.5,0.2
			c0.3,0.1,0.6,0.2,0.9,0.3c0.3,0,0.6,0.1,1,0.1c0.6,0,1.2-0.2,1.9-0.7c0.6-0.4,1.1-0.8,1.4-1.3c0.3-0.3,0.6-0.8,0.9-1.3l0.5-0.8
			l-2.6-1.7l-0.5,0.9c-0.7,1-1.3,1.7-1.8,1.7c-0.1,0-0.5,0-2-0.8c0,0-0.2-0.1-0.5-0.3c-0.3-0.2-0.6-0.3-0.7-0.3l-0.5-0.2
			c-0.3-0.1-0.6-0.2-0.9-0.3c-0.3,0-0.6-0.1-1-0.1c-0.6,0-1.2,0.2-1.9,0.7c-0.6,0.4-1.1,0.8-1.4,1.3c-0.3,0.3-0.6,0.8-0.9,1.3
			l-0.5,0.8l2.6,1.7L551.2,270.8z"/>
		<path id="XMLID_76_" d="M582.3,273.3c-3.8,0-7,1.4-9.5,4c-2.5,2.6-3.7,5.9-3.7,9.8c0,3.9,1.3,7.2,3.7,9.8c2.5,2.7,5.7,4,9.5,4
			c3.8,0,7-1.4,9.5-4c2.5-2.7,3.7-6,3.7-9.8c0-3.9-1.3-7.2-3.7-9.8C589.3,274.6,586.1,273.3,582.3,273.3z M582.3,297.4
			c-2.8,0-5-1-6.8-2.9c-1.8-2-2.6-4.4-2.6-7.4c0-3,0.9-5.4,2.6-7.4c1.7-2,4-2.9,6.8-2.9c2.8,0,5,1,6.8,2.9c1.8,2,2.6,4.4,2.6,7.4
			c0,3-0.9,5.4-2.6,7.4C587.3,296.5,585.1,297.4,582.3,297.4z"/>
	</g>
	<path id="XMLID_73_" d="M499.4,17.5H499V18h-0.4v0.5h-0.4V19h-0.4v0.5h-0.8h-0.4V19l0.4-0.5V18v-0.5h0.4V17h0.4v-0.5l0.4-0.5
		l0.4-0.5V15c0,0,0.4-0.3,1.3-1c0.6-1,2-2.1,4.2-3.4c2.2-1.3,4.6-2,7.2-2c2.8,0,5.1,0.5,6.7,1.5c2,1,4.1,2.5,6.3,4.4
		c2,2,3.9,4.4,5.9,7.4c2,3,3.4,6.1,4.2,9.4c0.8,3.6,1.3,7.2,1.3,10.8c0,3.9-0.4,7.6-1.3,10.8c-0.8,3.6-2.4,7.2-4.6,10.8
		c-1.7,3.6-3.6,6.6-5.9,8.9c-2.2,2.3-5.2,4.6-8.8,6.9c-3.7,2.6-7.9,4.6-12.6,5.9c-4.8,2-10,3.3-15.6,3.9c-5.3,0.7-11.5,0.7-18.5,0
		c-7.3,0-14.9-1-22.7-3c-7.9-2-15.2-4.3-21.9-6.9c-6.7-2.6-12.6-5.6-17.7-8.9c-4.8-3.3-8.4-6.2-11-8.9c-2.8-2.6-4.5-4.1-5.1-4.4
		c-0.6-0.3-1.4,0-2.5,1c-0.8,1-3.1,3.1-6.7,6.4c-3.7,3.3-8,6.2-13.1,8.9c-5.1,2.6-11.1,5.3-18.1,7.9c-6.7,2.6-14.3,4.8-22.7,6.4
		c-8.4,1.6-15.4,2.6-21.1,3c-5.3,0.3-9.3,0.2-11.8-0.5c-2.5,0-6.5-0.8-11.8-2.5c-5.6-1.6-10.4-3.4-14.3-5.4c-3.7-2-6.7-3.9-9.3-5.9
		c-2.5-2.6-4.8-5.4-6.7-8.4c-2.2-3.3-3.9-6.9-5.1-10.8c-1.1-3.9-1.8-8-2.1-12.3c-0.3-3.9-0.1-7.2,0.4-9.9c0.6-2.3,1.4-5.1,2.5-8.4
		c1.7-3.3,2.9-5.4,3.8-6.4c1.1-1.3,1.7-2.1,1.7-2.5c0-0.3,0.3-0.7,0.8-1c0.6-0.3,2.1-1.3,4.6-3c2.5-1.6,5.3-2.5,8.4-2.5
		c3.4,0,6.2,0.5,8.4,1.5l3.4,1.5V15h0.4v0.5h0.4l0.4,0.5l0.4,0.5h0.4V17h0.4v0.5V18h-0.8l-1.3-0.5h-0.4h-0.4V17h-0.4v-0.5h-1.7
		c-0.8-0.7-2.4-0.8-4.6-0.5c-2.2,0.3-4.2,1.1-5.9,2.5c-1.4,1.6-2.7,3.6-3.8,5.9c-1.1,2.3-1.7,5.6-1.7,9.9c0,4.6,0.6,7.7,1.7,9.4
		c0.8,1.6,2,3,3.4,3.9c1.4,1,3.4,1.5,5.9,1.5c2.8,0,6.2-1,10.1-3c4.2-2,9.5-5.1,16-9.4c6.7-4.3,13.3-8.7,19.8-13.3
		c6.7-4.6,12.5-8.2,17.3-10.8c5.1-2.6,9.3-4.3,12.6-4.9c3.7-1.3,7.7-1.8,12.2-1.5c4.5,0.3,8.8,1.1,13.1,2.5c4.2,2,7.9,4.1,11,6.4
		c3.4,2.3,5.2,3.6,5.5,3.9c0.3,0.3,2-0.8,5.1-3.4c3.1-2.6,6.7-4.6,11-5.9c4.2-2,7.3-3,9.3-3c2-0.7,5.5-0.8,10.5-0.5
		c5.1,0.3,9.5,1,13.5,2c3.7,1,8.1,3.1,13.5,6.4c5.3,3.3,13.1,8.9,23.2,16.7c10.1,7.9,17,12.5,20.6,13.8c3.4,2,6.6,3,9.7,3
		c3.1,0,5.8-0.7,8-2c2.2-1.3,3.9-2.6,5.1-3.9c1.1-1.6,1.7-4.4,1.7-8.4c0-3.9-0.6-7.1-1.7-9.4c-1.1-2.3-2.4-4.3-3.8-5.9
		c-1.4-1.3-2.7-2.3-3.8-3c-1.4-0.7-3.1-1-5.1-1c-1.7,0-3.1,0.5-4.2,1.5C500.2,17,499.7,17.5,499.4,17.5"/>
</g>
</svg>
