<svg id="Layer_1" data-name="Layer 1" xmlns="http://www.w3.org/2000/svg" viewBox="0 0 273.82 318.03"><defs><style>.cls-1,.cls-2,.cls-3{stroke:#000;stroke-miterlimit:10;}.cls-1{stroke-width:4.35px;}.cls-2{stroke-width:0.75px;}.cls-3{stroke-width:0.6px;}</style></defs><title>logo</title><path class="cls-1" d="M2.17,112.64c2.45-.19,5-.29,7.51-.29a11.57,11.57,0,0,1,6.64,1.89,6.15,6.15,0,0,1,2.8,5.46,9,9,0,0,1-1.48,5,10.24,10.24,0,0,1-3.55,3.48,12.25,12.25,0,0,1,5.6,3.58,8.37,8.37,0,0,1,2.26,5.7,8.24,8.24,0,0,1-2.8,6.73,11.73,11.73,0,0,1-7.68,2.31q-4.87,0-9.3-.38Zm14.69,7a4.5,4.5,0,0,0-2.14-4,8.55,8.55,0,0,0-4.8-1.41c-1.77,0-3.6.06-5.49.19v12.85H6.74c1.13,0,2.79.09,5,.28a10.47,10.47,0,0,0,3.63-3.25A7.91,7.91,0,0,0,16.86,119.63Zm.52,22.93a6.15,6.15,0,0,0,2.22-4.88,7.07,7.07,0,0,0-2.15-5.13,11.38,11.38,0,0,0-5.86-3,19.2,19.2,0,0,0-4-.38H4.43v15c1.39.16,3.82.23,7.3.23A8.34,8.34,0,0,0,17.38,142.56Z"/><path class="cls-1" d="M35.46,134.53l-4.85,11.68h-2.4l14.17-33.9H43.7l14.22,33.9H55.38l-4.85-11.68Zm7.44-18.46a3.22,3.22,0,0,0-.19.57c-.44,1.35-.86,2.49-1.27,3.44L36.26,132.6H49.73l-5.18-12.48A22.27,22.27,0,0,1,42.9,116.07Z"/><path class="cls-1" d="M66.77,146.21V112.68q4.47-.33,7.49-.33a12.3,12.3,0,0,1,7.91,2.48,8.4,8.4,0,0,1,3.1,7,10,10,0,0,1-1.78,5.7,16.28,16.28,0,0,1-4,4.19c1.16,1.6,2.6,3.5,4.31,5.72s2.82,3.6,3.32,4.16a10.52,10.52,0,0,0,6.5,3.49l0,1.5a11.66,11.66,0,0,1-4.66-.87,11.35,11.35,0,0,1-3.41-2.52q-1.63-1.69-8.08-10.54c-3.07,0-5.87-.1-8.38-.29v13.85Zm9.28-15.45q2.07,0,4.42-2.73a9.4,9.4,0,0,0,2.36-6.33,6.45,6.45,0,0,0-2.43-5.46A10.29,10.29,0,0,0,74,114.38c-1.42,0-3.07.06-5,.19v16C71.54,130.69,73.88,130.76,76.05,130.76Z"/><path class="cls-1" d="M101.72,112.64q3.68-.28,7.51-.29a11.59,11.59,0,0,1,6.64,1.89,6.15,6.15,0,0,1,2.8,5.46,9,9,0,0,1-1.48,5,10.26,10.26,0,0,1-3.56,3.48,12.23,12.23,0,0,1,5.61,3.58,8.41,8.41,0,0,1,2.26,5.7,8.24,8.24,0,0,1-2.8,6.73,11.73,11.73,0,0,1-7.68,2.31q-4.87,0-9.3-.38Zm14.69,7a4.5,4.5,0,0,0-2.14-4,8.55,8.55,0,0,0-4.8-1.41c-1.78,0-3.6.06-5.49.19v12.85h2.31c1.13,0,2.79.09,5,.28a10.47,10.47,0,0,0,3.63-3.25A7.91,7.91,0,0,0,116.41,119.63Zm.52,22.93a6.17,6.17,0,0,0,2.21-4.88,7.06,7.06,0,0,0-2.14-5.13,11.38,11.38,0,0,0-5.86-3,19.23,19.23,0,0,0-4-.38H104v15c1.38.16,3.82.23,7.3.23A8.36,8.36,0,0,0,116.93,142.56Z"/><path class="cls-1" d="M131.48,146.21V112.54h15.63v2H133.74V126.9h12.1v1.93h-12.1v15.4h13.89v2Z"/><path class="cls-1" d="M163.82,134.53,159,146.21h-2.4l14.17-33.9h1.32l14.22,33.9h-2.54l-4.85-11.68Zm7.44-18.46a3.22,3.22,0,0,0-.19.57c-.44,1.35-.86,2.49-1.27,3.44l-5.18,12.52h13.47l-5.18-12.48A22.27,22.27,0,0,1,171.26,116.07Z"/><path class="cls-1" d="M195.13,146.21V112.68q4.47-.33,7.49-.33a12.32,12.32,0,0,1,7.91,2.48,8.4,8.4,0,0,1,3.1,7,9.91,9.91,0,0,1-1.79,5.7,16.08,16.08,0,0,1-4,4.19c1.16,1.6,2.6,3.5,4.31,5.72s2.82,3.6,3.32,4.16a10.5,10.5,0,0,0,6.5,3.49l-.05,1.5a11.66,11.66,0,0,1-4.66-.87,11.35,11.35,0,0,1-3.41-2.52q-1.64-1.69-8.08-10.54-4.62,0-8.38-.29v13.85Zm9.28-15.45q2.07,0,4.42-2.73a9.4,9.4,0,0,0,2.36-6.33,6.45,6.45,0,0,0-2.43-5.46,10.3,10.3,0,0,0-6.43-1.86c-1.41,0-3.06.06-4.94.19v16C199.9,130.69,202.24,130.76,204.41,130.76Z"/><path class="cls-1" d="M229.73,146.21V112.54H232v33.67Z"/><path class="cls-1" d="M248.1,134.53l-4.85,11.68h-2.41L255,112.31h1.31l14.22,33.9H268l-4.85-11.68Zm7.43-18.46a2.79,2.79,0,0,0-.18.57c-.44,1.35-.87,2.49-1.28,3.44L248.9,132.6h13.46l-5.18-12.48A22.27,22.27,0,0,1,255.53,116.07Z"/><path class="cls-1" d="M13.9,167.16A17.11,17.11,0,0,1,26,171.65q4.88,4.48,4.87,12.2a17.9,17.9,0,0,1-1.25,6.91,12.05,12.05,0,0,1-3.44,4.8,17.42,17.42,0,0,1-11.27,3.63q-4.43,0-10-.48V167.46Q9.34,167.16,13.9,167.16Zm1,30.11q6.18,0,9.93-3.36t3.75-10.1q0-6.75-4.23-10.74a14.66,14.66,0,0,0-10.45-4c-2.66,0-5,.08-6.93.22v27.62A69.75,69.75,0,0,0,14.9,197.27Z"/><path class="cls-1" d="M39,198.8V167.46H53.56v1.84H41.12v11.53H52.38v1.8H41.12V197H54.05v1.84Z"/><path class="cls-1" d="M82.37,187.93,77.85,198.8H75.62l13.19-31.56H90l13.23,31.56h-2.36l-4.52-10.87Zm6.92-17.18a2.14,2.14,0,0,0-.17.53c-.41,1.25-.81,2.32-1.19,3.2l-4.82,11.65H95.65l-4.83-11.61A21.18,21.18,0,0,1,89.29,170.75Z"/><path class="cls-1" d="M133.62,167.46v1L115.17,197H134v1.84H112.1v-1l18.45-28.49H113.24v-1.84Z"/><path class="cls-1" d="M144.4,198.8V167.46H159v1.84H146.5v11.53h11.27v1.8H146.5V197h12.93v1.84Z"/><path class="cls-1" d="M169.6,198.8V167.46h2.1V198.8Z"/><path class="cls-1" d="M190.81,169.3h-10.6v-1.84h23.31v1.84h-10.6v29.5h-2.11Z"/><path class="cls-1" d="M211.23,187.93l-4.52,10.87h-2.23l13.19-31.56h1.23l13.23,31.56h-2.36l-4.52-10.87ZM214.56,158q-1.67,0-3.33,2.67l-1.14-.74c.41-.65.77-1.17,1.07-1.58a6.65,6.65,0,0,1,1.45-1.32,3.19,3.19,0,0,1,1.71-.7,6.55,6.55,0,0,1,1.12.07,3.69,3.69,0,0,1,.85.26l.66.28.79.4.68.35a7.47,7.47,0,0,0,3,1.18q1.67,0,3.33-2.67l1.14.74c-.41.65-.77,1.17-1.07,1.58a6.65,6.65,0,0,1-1.45,1.32,3.11,3.11,0,0,1-1.71.7,6.55,6.55,0,0,1-1.12-.07,3.69,3.69,0,0,1-.85-.26l-.66-.28-.79-.4-.68-.35A7.47,7.47,0,0,0,214.56,158Zm3.59,12.74a2.78,2.78,0,0,0-.17.53c-.41,1.25-.81,2.32-1.19,3.2L212,186.13h12.54l-4.82-11.61A20.8,20.8,0,0,1,218.15,170.75Z"/><path class="cls-1" d="M241.41,194.64a17.4,17.4,0,0,1,0-23,15.4,15.4,0,0,1,22.07,0,17.34,17.34,0,0,1,0,23,15.33,15.33,0,0,1-22.07,0ZM243,173a16,16,0,0,0,0,20.32,12.93,12.93,0,0,0,18.93,0,15.93,15.93,0,0,0,0-20.32,13,13,0,0,0-19,0Z"/><path class="cls-2" d="M54.66,252.41h-.4l-3.14-7.58c-.18-.42-.32-.79-.43-1.11l-.15,1.14L49.31,253h-.74l1.77-10.81h.42l3.35,7.94a8.22,8.22,0,0,1,.4,1.05c0-.11.19-.45.47-1l3.73-8h.41L60.75,253H60l-1.17-8.14a8.2,8.2,0,0,1-.12-1.16l-.07.14a4.26,4.26,0,0,1-.18.42c-.08.2-.17.4-.26.61Z"/><path class="cls-2" d="M65.46,249.25,63.91,253h-.76l4.51-10.8h.42L72.61,253H71.8l-1.54-3.72Zm2.37-5.88a.8.8,0,0,0-.06.18c-.14.43-.28.8-.41,1.1l-1.65,4H70l-1.65-4A7,7,0,0,1,67.83,243.37Z"/><path class="cls-2" d="M76,253V242.29c1-.07,1.74-.1,2.38-.1a4,4,0,0,1,2.52.78,2.69,2.69,0,0,1,1,2.23,3.15,3.15,0,0,1-.57,1.81,5.12,5.12,0,0,1-1.27,1.34c.37.51.82,1.12,1.37,1.82s.9,1.15,1.06,1.33a3.33,3.33,0,0,0,2.07,1.11l0,.48a3.78,3.78,0,0,1-1.48-.28A3.47,3.47,0,0,1,82,252c-.35-.36-1.2-1.48-2.57-3.36q-1.47,0-2.67-.09V253Zm3-4.92a2,2,0,0,0,1.41-.87,3,3,0,0,0,.75-2,2.06,2.06,0,0,0-.77-1.74,3.31,3.31,0,0,0-2.05-.59c-.45,0-1,0-1.57.06V248C77.55,248,78.29,248.05,79,248.05Z"/><path class="cls-2" d="M87.1,253V242.25h.71V253Z"/><path class="cls-2" d="M93.54,249.25,92,253h-.77l4.52-10.8h.42L100.7,253h-.81l-1.55-3.72Zm2.37-5.88a.8.8,0,0,0-.06.18c-.14.43-.27.8-.4,1.1l-1.65,4h4.29l-1.65-4A7.49,7.49,0,0,1,95.91,243.37Z"/><path class="cls-2" d="M104.8,244l0,1.27V253h-.72V242.16h.33l7.07,8.14c.48.57.85,1,1.11,1.36q-.06-.72-.06-1.65v-7.76h.72v10.81H113l-7.2-8.29q-.75-.86-1-1.14Z"/><path class="cls-2" d="M119.3,251.54a5.92,5.92,0,0,1,0-7.88,5.28,5.28,0,0,1,7.55,0,6,6,0,0,1,0,7.88,5.23,5.23,0,0,1-7.55,0Zm.53-7.41a5.44,5.44,0,0,0,0,7,4.42,4.42,0,0,0,6.47,0,5.46,5.46,0,0,0,0-7,4.45,4.45,0,0,0-6.48,0Z"/><path class="cls-2" d="M144.54,253.15a5.65,5.65,0,0,1-4-1.6,5.22,5.22,0,0,1-1.68-3.94,5.62,5.62,0,0,1,1.47-4,4.89,4.89,0,0,1,3.76-1.59,11.77,11.77,0,0,1,3.65.6l-.2.6a12,12,0,0,0-3.45-.54,4.09,4.09,0,0,0-3.21,1.41,5,5,0,0,0-1.24,3.44,4.71,4.71,0,0,0,1.45,3.48,4.76,4.76,0,0,0,3.47,1.43,7.9,7.9,0,0,0,3.06-.54l.22.51a4.79,4.79,0,0,1-1.49.51A9.29,9.29,0,0,1,144.54,253.15Z"/><path class="cls-2" d="M152.41,249.25,150.87,253h-.77l4.51-10.8H155l4.53,10.8h-.81l-1.54-3.72Zm2.37-5.88a.8.8,0,0,0-.06.18c-.14.43-.28.8-.41,1.1l-1.64,4H157l-1.65-4A7,7,0,0,1,154.78,243.37Z"/><path class="cls-2" d="M163.82,242.88h-3.63v-.63h8v.63h-3.63V253h-.72Z"/><path class="cls-2" d="M171.11,249.25,169.56,253h-.76l4.51-10.8h.42l4.53,10.8h-.81l-1.54-3.72Zm2.37-5.88a.8.8,0,0,0-.06.18c-.14.43-.28.8-.41,1.1l-1.65,4h4.29l-1.65-4A7,7,0,0,1,173.48,243.37Z"/><path class="cls-2" d="M186.75,252.41h-.41l-3.13-7.58c-.18-.42-.33-.79-.44-1.11l-.15,1.14L181.39,253h-.73l1.77-10.81h.42l3.34,7.94a8.36,8.36,0,0,1,.41,1.05,10.15,10.15,0,0,1,.46-1l3.74-8h.4L192.84,253h-.75l-1.17-8.14a8.2,8.2,0,0,1-.12-1.16.54.54,0,0,0-.07.14l-.18.42c-.09.2-.17.4-.26.61Z"/><path class="cls-2" d="M197,242.28q1.17-.09,2.4-.09a3.71,3.71,0,0,1,2.11.6,2,2,0,0,1,.89,1.74,2.87,2.87,0,0,1-.47,1.58,3.32,3.32,0,0,1-1.13,1.11,3.86,3.86,0,0,1,1.78,1.14,2.68,2.68,0,0,1,.72,1.82,2.62,2.62,0,0,1-.89,2.14,3.74,3.74,0,0,1-2.44.74q-1.56,0-3-.12Zm4.68,2.22a1.44,1.44,0,0,0-.68-1.26,2.74,2.74,0,0,0-1.53-.45c-.56,0-1.15,0-1.75.06v4.09h.74q.54,0,1.59.09a3.34,3.34,0,0,0,1.15-1A2.48,2.48,0,0,0,201.65,244.5Zm.17,7.31a2,2,0,0,0,.7-1.56,2.25,2.25,0,0,0-.68-1.63,3.66,3.66,0,0,0-1.87-1,6.06,6.06,0,0,0-1.28-.12h-1v4.79c.44,0,1.22.07,2.33.07A2.68,2.68,0,0,0,201.82,251.81Z"/><path class="cls-2" d="M208.17,249.25,206.63,253h-.76l4.51-10.8h.42l4.53,10.8h-.81L213,249.25Zm2.37-5.88a.8.8,0,0,0-.06.18c-.14.43-.27.8-.4,1.1l-1.65,4h4.29l-1.65-4A7.49,7.49,0,0,1,210.54,243.37Z"/><path class="cls-2" d="M223.38,243.19a5.55,5.55,0,0,0-2.18-.46c-1.46,0-2.18.54-2.18,1.62a2,2,0,0,0,.49,1.31,5.7,5.7,0,0,0,1.2,1.08l1.41,1a5,5,0,0,1,1.2,1.19,2.51,2.51,0,0,1,.49,1.5,2.42,2.42,0,0,1-.91,2.06,4.11,4.11,0,0,1-2.53.7,4.57,4.57,0,0,1-2.75-.83l.36-.54a4.25,4.25,0,0,0,2.37.71,3.22,3.22,0,0,0,2-.52,1.74,1.74,0,0,0,.69-1.49,2,2,0,0,0-.5-1.28,5.78,5.78,0,0,0-1.2-1.1c-.47-.32-.94-.66-1.4-1a5.11,5.11,0,0,1-1.2-1.21,2.58,2.58,0,0,1-.5-1.51,2,2,0,0,1,.79-1.69,3.29,3.29,0,0,1,2.13-.62,5.81,5.81,0,0,1,2.49.54Z"/><path class="cls-3" d="M119.21,300.19V317h-1.13V301.63L115.42,303l-.4-.73,3.49-2.12Z"/><path class="cls-3" d="M133.08,306.45a6.15,6.15,0,0,0-1.18-4.2,4.05,4.05,0,0,0-5.93,0,4.36,4.36,0,0,0-1.15,3,4.45,4.45,0,0,0,1,2.93,3.19,3.19,0,0,0,2.58,1.17,7.77,7.77,0,0,0,3.36-.85l.3.73a8.63,8.63,0,0,1-4.06,1.06,3.89,3.89,0,0,1-3.19-1.41,5.49,5.49,0,0,1-1.15-3.58,5.3,5.3,0,0,1,1.53-3.78,4.92,4.92,0,0,1,3.72-1.61,5.38,5.38,0,0,1,3.72,1.34c1.14,1,1.71,2.77,1.71,5.2a11.14,11.14,0,0,1-.49,3.33,11.43,11.43,0,0,1-1.18,2.69,12,12,0,0,1-1.75,2.16A17.5,17.5,0,0,1,129,316.3c-.53.4-1.14.84-1.85,1.31l-.49-.75a19.91,19.91,0,0,0,2.16-1.62,16.83,16.83,0,0,0,2-2.08A10.26,10.26,0,0,0,133.08,306.45Z"/><path class="cls-3" d="M147.3,306.45a6.15,6.15,0,0,0-1.18-4.2,4.05,4.05,0,0,0-5.93,0,4.36,4.36,0,0,0-1.15,3,4.45,4.45,0,0,0,1,2.93,3.16,3.16,0,0,0,2.58,1.17,7.73,7.73,0,0,0,3.35-.85l.31.73a8.63,8.63,0,0,1-4.06,1.06,3.89,3.89,0,0,1-3.19-1.41,5.49,5.49,0,0,1-1.15-3.58,5.3,5.3,0,0,1,1.53-3.78,4.92,4.92,0,0,1,3.72-1.61,5.34,5.34,0,0,1,3.71,1.34c1.15,1,1.72,2.77,1.72,5.2a11.14,11.14,0,0,1-.49,3.33,11.43,11.43,0,0,1-1.18,2.69,12,12,0,0,1-1.75,2.16,19.72,19.72,0,0,1-1.86,1.67c-.53.4-1.14.84-1.85,1.31l-.49-.75a20.94,20.94,0,0,0,2.16-1.62,16.83,16.83,0,0,0,2-2.08A10.26,10.26,0,0,0,147.3,306.45Z"/><path class="cls-3" d="M154.79,300.19V317h-1.13V301.63L151,303l-.4-.73,3.49-2.12Z"/><circle cx="97.98" cy="309.61" r="2.13"/><circle cx="174.75" cy="309.61" r="2.13"/><path d="M185.45,76.28S189,73.86,188,70.1c-1.22-4.44-6.45-4.3-7.66-4.81S122,1.74,119.18.49c-2.16-1-4.75-.52-7.65,1.35s-4.8,5.36-4,6.18,39,43.72,42.27,43.86a22.22,22.22,0,0,0,6.8-1l12.08,14.9a342.88,342.88,0,0,1-35.95-3.42c-19.15-2.91-38.7-7.32-46.9-10.47-3.3-1.27-8.2-.77-10.21,5.27s1.71,8.5,1.71,8.5.33,4.09,34.76,9.49,64.59,3.41,67.56,3.65c2.34.19,11.74,12.27,14.48,11.47S187.68,80.17,185.45,76.28ZM81.69,62a2.68,2.68,0,1,1,3.49-1.45A2.67,2.67,0,0,1,81.69,62Zm63.92,11.9a2.67,2.67,0,1,1,3.49-1.45A2.67,2.67,0,0,1,145.61,73.85Zm31.16.66a2.67,2.67,0,1,1,3.49-1.45A2.65,2.65,0,0,1,176.77,74.51Z"/><rect x="30.1" y="221.95" width="212.52" height="1.28"/></svg>